<svg width="64" height="64" viewBox="0 0 64 64" fill="none" xmlns="http://www.w3.org/2000/svg">
<path d="M54.6667 40C59.0849 40 62.6667 36.4183 62.6667 32C62.6667 27.5817 59.0849 24 54.6667 24C50.2484 24 46.6667 27.5817 46.6667 32C46.6667 36.4183 50.2484 40 54.6667 40Z" fill="#67AD1F"/>
<path d="M25.3333 29.3333C28.1462 29.3333 30.8959 28.4732 33.2348 26.8616C35.5736 25.25 37.3965 22.9593 38.4729 20.2794C39.5494 17.5994 39.831 14.6504 39.2823 11.8053C38.7335 8.96029 37.379 6.34694 35.39 4.29577C33.4009 2.2446 30.8668 0.847739 28.1079 0.281822C25.3491 -0.284094 22.4895 0.00635486 19.8907 1.11644C17.292 2.22653 15.0707 4.10639 13.508 6.51831C11.9452 8.93023 11.1111 11.7659 11.1111 14.6667C11.1149 18.5553 12.6145 22.2836 15.2809 25.0333C17.9472 27.783 21.5625 29.3295 25.3333 29.3333ZM25.3333 4.8889C27.2086 4.8889 29.0417 5.46235 30.601 6.53675C32.1602 7.61114 33.3754 9.13823 34.0931 10.9249C34.8107 12.7115 34.9985 14.6775 34.6326 16.5742C34.2668 18.4709 33.3638 20.2132 32.0377 21.5806C30.7117 22.9481 29.0223 23.8793 27.1831 24.2566C25.3438 24.6339 23.4374 24.4402 21.7049 23.7002C19.9724 22.9601 18.4916 21.7069 17.4498 20.0989C16.4079 18.491 15.8518 16.6005 15.8518 14.6667C15.8518 12.0734 16.8508 9.58643 18.6289 7.75274C20.407 5.91905 22.8187 4.8889 25.3333 4.8889ZM46.6667 56.2222C46.6667 56.8705 46.4169 57.4923 45.9724 57.9507C45.5279 58.4091 44.9249 58.6667 44.2963 58.6667C43.6676 58.6667 43.0647 58.4091 42.6202 57.9507C42.1757 57.4923 41.9259 56.8705 41.9259 56.2222C41.9259 51.6841 40.1778 47.3318 37.0661 44.1228C33.9543 40.9139 29.734 39.1111 25.3333 39.1111C20.9327 39.1111 16.7123 40.9139 13.6006 44.1228C10.4889 47.3318 8.74074 51.6841 8.74074 56.2222C8.74074 56.8705 8.49101 57.4923 8.04647 57.9507C7.60194 58.4091 6.99903 58.6667 6.37037 58.6667C5.74171 58.6667 5.1388 58.4091 4.69427 57.9507C4.24973 57.4923 4 56.8705 4 56.2222C4 50.3875 6.24761 44.7917 10.2484 40.6659C14.2492 36.5401 19.6754 34.2222 25.3333 34.2222C30.9913 34.2222 36.4175 36.5401 40.4183 40.6659C44.419 44.7917 46.6667 50.3875 46.6667 56.2222Z" fill="#67AD1F"/>
</svg>
