<svg width="112" height="52" viewBox="0 0 112 52" fill="none" xmlns="http://www.w3.org/2000/svg">
<mask id="mask0_30_1806" style="mask-type:alpha" maskUnits="userSpaceOnUse" x="0" y="11" width="112" height="41">
<path d="M1 50.5622L10.5511 42.7681C12.7909 40.9403 16.0206 40.9876 18.2059 42.8802L20.2985 44.6925C23.5156 47.4788 28.5327 46.0833 29.8491 42.036L38.1696 16.4544C39.9202 11.0719 47.4892 10.9459 49.4182 16.2671L53.4611 27.4201C54.9499 31.5273 60.5371 32.0703 62.7889 28.3267V28.3267C64.8966 24.8228 70.0398 25.0184 71.8752 28.6723L73.8115 32.5271C74.583 34.0631 75.9813 35.1902 77.6461 35.6181L83.9693 37.2433C85.034 37.5169 86.002 38.0802 86.7659 38.8707L96.3877 48.827C97.4631 49.9398 98.9297 50.5896 100.476 50.6387L111.867 51" stroke="#3D639D" strokeWidth="1.2486" strokeLinejoin="round"/>
</mask>
<g mask="url(#mask0_30_1806)">
<rect x="-32.8872" y="-3.02094" width="160.211" height="59.8712" fill="#09958C"/>
</g>
</svg>
