<svg width="158" height="73" viewBox="0 0 158 73" fill="none" xmlns="http://www.w3.org/2000/svg">
<mask id="mask0_30_1879" style="mask-type:alpha" maskUnits="userSpaceOnUse" x="0" y="11" width="158" height="62">
<path d="M0.666504 71.3819L15.7659 59.0718C18.0049 57.2463 21.2318 57.2936 23.4165 59.1838L30.7397 65.5202C33.9567 68.3037 38.9708 66.9085 40.2877 62.8634L55.4022 16.4374C57.1538 11.057 64.7197 10.9309 66.6497 16.2499L75.7915 41.4453C77.4984 46.1495 83.8976 46.7718 86.4789 42.4846L89.2794 37.8333C91.6952 33.8208 97.5856 34.045 99.6895 38.2295L104.057 46.917C104.829 48.4524 106.228 49.5789 107.892 50.0063L118.584 52.7517C119.648 53.0249 120.616 53.5876 121.38 54.3774L136.152 69.6487C137.227 70.7602 138.693 71.4093 140.239 71.4583L157.333 72" stroke="#3D639D" strokeWidth="1.2486" strokeLinejoin="round"/>
</mask>
<g mask="url(#mask0_30_1879)">
<rect x="-11" y="7" width="189" height="71" fill="#09958C"/>
</g>
</svg>
