<svg width="24" height="27" viewBox="0 0 24 27" fill="none" xmlns="http://www.w3.org/2000/svg">
<g clipPath="url(#clip0_67_1806)">
<path d="M7.26699 18.646L6.31552 18.6924L4.4708 23.9924C4.41202 24.1612 4.5488 24.3338 4.7266 24.3152L7.31236 24.0444C7.3846 24.0369 7.45641 24.0618 7.50835 24.1126L9.36717 25.9304C9.49496 26.0553 9.70936 26.0049 9.7681 25.8362L11.6249 20.5015L11.0774 19.9702L7.26699 18.646Z" fill="#FF4755"/>
<path d="M11.6248 20.5015L12 19.4236L6.68955 17.6177L6.31549 18.6924C7.82346 19.7684 9.64933 20.4271 11.6248 20.5015Z" fill="#FC2B3A"/>
<path d="M16.7331 18.646L17.6845 18.6924L19.5293 23.9924C19.588 24.1612 19.4513 24.3338 19.2735 24.3152L16.6877 24.0444C16.6155 24.0369 16.5437 24.0618 16.4918 24.1126L14.6329 25.9304C14.5052 26.0553 14.2907 26.0049 14.232 25.8362L12.3752 20.5015L12.9227 19.9702L16.7331 18.646Z" fill="#FF4755"/>
<path d="M12.3752 20.5015L12 19.4236L17.3105 17.6177L17.6845 18.6924C16.1766 19.7684 14.3507 20.4271 12.3752 20.5015Z" fill="#FC2B3A"/>
<path d="M12.0001 18.8804C3.28824 18.8804 3.29189 10.4181 3.29911 10.2727C3.52782 5.66534 7.33589 2 12.0001 2C16.6642 2 20.4723 5.66534 20.701 10.2727C20.7082 10.4182 20.7119 18.8804 12.0001 18.8804Z" fill="#E8EDF6"/>
<path d="M12 18.5454C7.33586 18.5454 3.52793 14.8801 3.29918 10.2727C3.29196 10.4182 3.28821 10.5645 3.28821 10.7118C3.28821 15.5232 7.18863 19.4236 12 19.4236C16.8114 19.4236 20.7118 15.5232 20.7118 10.7118C20.7118 10.5645 20.7081 10.4182 20.7009 10.2727C20.4721 14.8801 16.6642 18.5454 12 18.5454Z" fill="#C3D0E0"/>
<path d="M12 17.0059C5.15081 17.0059 5.14163 10.2708 5.15081 10.1256C5.37727 6.53985 8.3572 3.70166 12 3.70166C15.6429 3.70166 18.6228 6.53985 18.8493 10.1256C18.8585 10.2708 18.8493 17.0059 12 17.0059Z" fill="#B8C7D9"/>
<path d="M12 16.6967C8.35723 16.6967 5.37781 13.8584 5.15135 10.2727C5.14217 10.4179 5.13696 10.5643 5.13696 10.7118C5.13696 14.5021 8.20967 17.5748 12 17.5748C15.7904 17.5748 18.8631 14.5021 18.8631 10.7118C18.8631 10.5642 18.8579 10.4179 18.8487 10.2727C18.6222 13.8584 15.6428 16.6967 12 16.6967Z" fill="#AEB9C7"/>
<path d="M9.87062 13.343C10.6326 12.731 11.2296 12.23 11.6616 11.84C12.0936 11.444 12.4566 11.033 12.7506 10.607C13.0506 10.175 13.2006 9.752 13.2006 9.338C13.2006 8.948 13.1046 8.642 12.9126 8.42C12.7266 8.192 12.4236 8.078 12.0036 8.078C11.5956 8.078 11.2776 8.207 11.0496 8.465C10.8276 8.717 10.7076 9.056 10.6896 9.482H9.89762C9.92162 8.81 10.1256 8.291 10.5096 7.925C10.8936 7.559 11.3886 7.376 11.9946 7.376C12.6126 7.376 13.1016 7.547 13.4616 7.889C13.8276 8.231 14.0106 8.702 14.0106 9.302C14.0106 9.8 13.8606 10.286 13.5606 10.76C13.2666 11.228 12.9306 11.642 12.5526 12.002C12.1746 12.356 11.6916 12.77 11.1036 13.244H14.1996V13.928H9.87062V13.343Z" fill="#E8EDF6"/>
</g>
<defs>
<clipPath id="clip0_67_1806">
<rect width="24" height="24" fill="white" transform="translate(0 2)"/>
</clipPath>
</defs>
</svg>
