<svg width="24" height="27" viewBox="0 0 24 27" fill="none" xmlns="http://www.w3.org/2000/svg">
<g clipPath="url(#clip0_67_1825)">
<path d="M7.26699 18.646L6.31552 18.6924L4.4708 23.9924C4.41202 24.1612 4.5488 24.3338 4.7266 24.3152L7.31236 24.0444C7.3846 24.0369 7.45641 24.0618 7.50835 24.1126L9.36717 25.9304C9.49496 26.0553 9.70936 26.0049 9.7681 25.8362L11.6249 20.5015L11.0774 19.9702L7.26699 18.646Z" fill="#FF4755"/>
<path d="M11.6248 20.5015L12 19.4236L6.68955 17.6177L6.31549 18.6924C7.82346 19.7684 9.64933 20.4271 11.6248 20.5015Z" fill="#FC2B3A"/>
<path d="M16.7331 18.646L17.6845 18.6924L19.5293 23.9924C19.588 24.1612 19.4513 24.3338 19.2735 24.3152L16.6877 24.0444C16.6155 24.0369 16.5437 24.0618 16.4918 24.1126L14.6329 25.9304C14.5052 26.0553 14.2907 26.0049 14.232 25.8362L12.3752 20.5015L12.9227 19.9702L16.7331 18.646Z" fill="#FF4755"/>
<path d="M12.3752 20.5015L12 19.4236L17.3105 17.6177L17.6845 18.6924C16.1766 19.7684 14.3507 20.4271 12.3752 20.5015Z" fill="#FC2B3A"/>
<path d="M12.0001 18.8804C3.28824 18.8804 3.29189 10.4181 3.29911 10.2727C3.52782 5.66534 7.33589 2 12.0001 2C16.6642 2 20.4723 5.66534 20.701 10.2727C20.7082 10.4182 20.7119 18.8804 12.0001 18.8804Z" fill="#BF958F"/>
<path d="M12 18.5454C7.33586 18.5454 3.52793 14.8801 3.29918 10.2727C3.29196 10.4182 3.28821 10.5645 3.28821 10.7118C3.28821 15.5232 7.18863 19.4236 12 19.4236C16.8114 19.4236 20.7118 15.5232 20.7118 10.7118C20.7118 10.5645 20.7081 10.4182 20.7009 10.2727C20.4721 14.8801 16.6642 18.5454 12 18.5454Z" fill="#BF958F"/>
<path d="M12 17.0059C5.15081 17.0059 5.14163 10.2708 5.15081 10.1256C5.37727 6.53985 8.3572 3.70166 12 3.70166C15.6429 3.70166 18.6228 6.53985 18.8493 10.1256C18.8585 10.2708 18.8493 17.0059 12 17.0059Z" fill="#705753"/>
<path d="M12 16.6967C8.35723 16.6967 5.37781 13.8584 5.15135 10.2727C5.14217 10.4179 5.13696 10.5643 5.13696 10.7118C5.13696 14.5021 8.20967 17.5748 12 17.5748C15.7904 17.5748 18.8631 14.5021 18.8631 10.7118C18.8631 10.5642 18.8579 10.4179 18.8487 10.2727C18.6222 13.8584 15.6428 16.6967 12 16.6967Z" fill="#A17E79"/>
<path d="M9.8901 9.131C9.9321 8.579 10.1451 8.147 10.5291 7.835C10.9131 7.523 11.4111 7.367 12.0231 7.367C12.4311 7.367 12.7821 7.442 13.0761 7.592C13.3761 7.736 13.6011 7.934 13.7511 8.186C13.9071 8.438 13.9851 8.723 13.9851 9.041C13.9851 9.413 13.8771 9.734 13.6611 10.004C13.4511 10.274 13.1751 10.448 12.8331 10.526V10.571C13.2231 10.667 13.5321 10.856 13.7601 11.138C13.9881 11.42 14.1021 11.789 14.1021 12.245C14.1021 12.587 14.0241 12.896 13.8681 13.172C13.7121 13.442 13.4781 13.655 13.1661 13.811C12.8541 13.967 12.4791 14.045 12.0411 14.045C11.4051 14.045 10.8831 13.88 10.4751 13.55C10.0671 13.214 9.8391 12.74 9.7911 12.128H10.5831C10.6251 12.488 10.7721 12.782 11.0241 13.01C11.2761 13.238 11.6121 13.352 12.0321 13.352C12.4521 13.352 12.7701 13.244 12.9861 13.028C13.2081 12.806 13.3191 12.521 13.3191 12.173C13.3191 11.723 13.1691 11.399 12.8691 11.201C12.5691 11.003 12.1161 10.904 11.5101 10.904H11.3031V10.22H11.5191C12.0711 10.214 12.4881 10.124 12.7701 9.95C13.0521 9.77 13.1931 9.494 13.1931 9.122C13.1931 8.804 13.0881 8.549 12.8781 8.357C12.6741 8.165 12.3801 8.069 11.9961 8.069C11.6241 8.069 11.3241 8.165 11.0961 8.357C10.8681 8.549 10.7331 8.807 10.6911 9.131H9.8901Z" fill="#BF958F"/>
</g>
<defs>
<clipPath id="clip0_67_1825">
<rect width="24" height="24" fill="white" transform="translate(0 2)"/>
</clipPath>
</defs>
</svg>
