<svg width="81" height="81" viewBox="0 0 81 81" fill="none" xmlns="http://www.w3.org/2000/svg">
<g id="gift 1" clipPath="url(#clip0_1488_34387)">
<g id="Group">
<path id="Vector" d="M66.273 40.4852V78.1554C66.273 79.4682 65.2415 80.5 63.9283 80.5H17.036C15.7229 80.5 14.6914 79.4682 14.6914 78.1554V44.1427C14.6914 43.2986 15.1602 42.5485 15.8637 42.1263L22.194 38.4689C22.5693 38.2343 22.9913 38.1406 23.3663 38.1406H33.4483L40.4822 44.1427L47.516 38.1406H63.9283C65.2415 38.1406 66.273 39.1721 66.273 40.4852Z" fill="#E63950"/>
<path id="Vector_2" d="M66.2712 40.4852V78.1554C66.2712 79.4682 65.2398 80.5 63.9266 80.5H40.4805V44.1427L47.5143 38.1406H63.9266C65.2398 38.1406 66.2712 39.1721 66.2712 40.4852Z" fill="#D0004F"/>
<path id="Vector_3" d="M42.0746 5.191C41.6524 4.44056 41.0897 3.73733 40.4801 3.22121C39.3547 2.0489 37.9481 1.25188 36.4005 0.83001C33.962 0.173518 31.4299 0.501764 29.2727 1.7677C26.2716 3.50303 24.4899 6.73829 24.5835 10.2085C24.6304 10.6774 24.8648 17.6487 24.8648 17.6487C24.349 17.3674 19.0033 14.0379 19.0033 14.0379C18.3937 13.7565 14.1736 10.5678 8.96851 13.6157C6.8113 14.8819 5.26386 16.8981 4.60721 19.2898C3.95087 21.7284 4.27927 24.2604 5.54505 26.4176C8.12413 30.9191 13.892 32.4196 18.3468 29.8406L24.3834 26.3552L15.9737 25.7945C15.2666 26.1981 14.4696 26.4106 13.6632 26.4106C11.9871 26.4106 10.4348 25.5199 9.61281 24.0842C8.95803 22.9691 8.80219 21.7465 9.13419 20.5101C9.46166 19.3217 10.2469 18.3029 11.3414 17.6617C12.1062 17.2129 12.8343 16.9954 13.5647 16.9954C14.7783 16.9954 15.7834 17.5884 16.3215 17.9066L16.6191 18.0761C17.3541 18.534 22.1212 21.4922 22.6157 21.7624L22.792 21.8586L22.7522 21.8815L22.8171 21.8843L28.4441 25.1668L29.5383 17.9767L29.5653 17.8915L29.5513 17.4877C29.5513 17.4877 29.2971 10.2189 29.2468 9.72892C29.2216 8.32309 30.1237 6.6928 31.6189 5.82732C32.3493 5.3992 33.1187 5.18849 33.9291 5.18849C34.3458 5.18849 34.7671 5.2457 35.1838 5.35793C35.9371 5.56395 36.5896 5.93955 37.0979 6.47069L37.4506 6.80268C37.5834 6.91257 37.8009 7.15766 37.9841 7.48497C39.106 9.38082 38.7603 11.8963 37.2171 13.3892C36.9629 13.6204 36.6286 13.8723 36.3241 14.0463L36.091 14.1809L35.4647 19.9569L38.6509 18.1173C39.3074 17.7422 39.9171 17.2733 40.4797 16.7576C43.4812 13.8504 44.3253 8.98927 42.0746 5.191Z" fill="#FED843"/>
<g id="Group_2">
<g id="Group_3">
<path id="Vector_4" d="M33.4453 38.1406V64.0877C33.4453 65.0256 34.008 65.8696 34.899 66.2446C35.743 66.6199 36.7748 66.4323 37.431 65.7288L40.4792 62.7277L43.5273 65.7288C44.1837 66.4323 45.2154 66.6197 46.0593 66.2446C46.9503 65.8696 47.513 65.0257 47.513 64.0877V38.1406H33.4453Z" fill="#FED843"/>
</g>
</g>
<path id="Vector_5" d="M78.1489 28.7635H75.8042V26.4188C75.8042 25.1229 74.7556 24.0742 73.4596 24.0742C72.1637 24.0742 71.115 25.1229 71.115 26.4188V28.7635H68.7704C67.4744 28.7635 66.4258 29.8121 66.4258 31.1081C66.4258 32.404 67.4744 33.4527 68.7704 33.4527H71.115V35.7973C71.115 37.0932 72.1637 38.1419 73.4596 38.1419C74.7556 38.1419 75.8042 37.0932 75.8042 35.7973V33.4527H78.1489C79.4448 33.4527 80.4935 32.404 80.4935 31.1081C80.4935 29.8121 79.4448 28.7635 78.1489 28.7635Z" fill="#FFB64C"/>
<g id="Group_4">
<path id="Vector_6" d="M68.6141 19.3845C69.909 19.3845 70.9588 18.3348 70.9588 17.0399C70.9588 15.745 69.909 14.6953 68.6141 14.6953C67.3193 14.6953 66.2695 15.745 66.2695 17.0399C66.2695 18.3348 67.3193 19.3845 68.6141 19.3845Z" fill="#FFB64C"/>
</g>
<g id="Group_5">
<path id="Vector_7" d="M59.2391 33.4509C60.534 33.4509 61.5838 32.4012 61.5838 31.1063C61.5838 29.8114 60.534 28.7617 59.2391 28.7617C57.9443 28.7617 56.8945 29.8114 56.8945 31.1063C56.8945 32.4012 57.9443 33.4509 59.2391 33.4509Z" fill="#FFB64C"/>
</g>
<path id="Vector_8" d="M40.4805 38.1406H47.5143V64.0877C47.5143 65.0256 46.9516 65.8696 46.0607 66.2446C45.2166 66.6199 44.1848 66.4323 43.5286 65.7288L40.4805 62.7277V38.1406Z" fill="#FFB64C"/>
<path id="Vector_9" d="M40.4805 16.7591V3.22266C41.0901 3.73863 41.6528 4.44186 42.075 5.19229C44.3256 8.99057 43.4816 13.8519 40.4805 16.7591Z" fill="#FFB64C"/>
<path id="Vector_10" d="M60.7848 18.9138L53.751 6.72179C53.0945 5.59637 51.6409 5.22123 50.5154 5.87772L40.4805 11.6924L39.137 12.4673L12.4742 27.8513L1.79432 34.0133C0.668909 34.6229 0.137463 36.0765 0.793955 37.2019L7.98411 49.3939C8.6406 50.5195 10.0474 50.8945 11.1728 50.2378L40.4805 33.3099L59.8939 22.1025C61.0193 21.4463 61.3946 20.0395 60.7848 18.9138Z" fill="#FF641A"/>
<path id="Vector_11" d="M59.8939 22.1025L40.4805 33.3097V11.6924L50.5154 5.87772C51.6408 5.22123 53.0945 5.59637 53.751 6.72179L60.7848 18.9136C61.3946 20.0395 61.0193 21.4461 59.8939 22.1025Z" fill="#E63950"/>
</g>
</g>
<defs>
<clipPath id="clip0_1488_34387">
<rect width="80" height="80" fill="white" transform="translate(0.5 0.5)"/>
</clipPath>
</defs>
</svg>
