<svg width="48" height="48" viewBox="0 0 48 48" fill="none" xmlns="http://www.w3.org/2000/svg">
<path d="M23.5333 26.3333H31C31.6611 26.3333 32.2157 26.1093 32.6637 25.6613C33.1117 25.2133 33.3349 24.6595 33.3333 24C33.3333 23.3389 33.1093 22.7843 32.6613 22.3363C32.2133 21.8883 31.6595 21.6651 31 21.6667H23.5333L25.6333 19.5667C26.0611 19.1389 26.275 18.5944 26.275 17.9333C26.275 17.2722 26.0611 16.7278 25.6333 16.3C25.2055 15.8722 24.6611 15.6583 24 15.6583C23.3389 15.6583 22.7944 15.8722 22.3667 16.3L16.3 22.3667C15.8333 22.8333 15.6 23.3778 15.6 24C15.6 24.6222 15.8333 25.1667 16.3 25.6333L22.3667 31.7C22.7944 32.1278 23.3389 32.3417 24 32.3417C24.6611 32.3417 25.2055 32.1278 25.6333 31.7C26.0611 31.2722 26.275 30.7278 26.275 30.0667C26.275 29.4055 26.0611 28.8611 25.6333 28.4333L23.5333 26.3333ZM24 47.3333C20.7722 47.3333 17.7389 46.7204 14.9 45.4947C12.0611 44.2689 9.59166 42.6068 7.49166 40.5083C5.39166 38.4083 3.72955 35.9389 2.50532 33.1C1.2811 30.2611 0.668212 27.2278 0.666656 24C0.666656 20.7722 1.27955 17.7389 2.50532 14.9C3.7311 12.0611 5.39321 9.59166 7.49166 7.49166C9.59166 5.39166 12.0611 3.72955 14.9 2.50532C17.7389 1.2811 20.7722 0.668212 24 0.666656C27.2278 0.666656 30.2611 1.27955 33.1 2.50532C35.9389 3.7311 38.4083 5.39321 40.5083 7.49166C42.6083 9.59166 44.2712 12.0611 45.497 14.9C46.7228 17.7389 47.3349 20.7722 47.3333 24C47.3333 27.2278 46.7204 30.2611 45.4947 33.1C44.2689 35.9389 42.6068 38.4083 40.5083 40.5083C38.4083 42.6083 35.9389 44.2712 33.1 45.497C30.2611 46.7228 27.2278 47.3349 24 47.3333Z" fill="#09958C"/>
</svg>
