<svg width="26" height="26" viewBox="0 0 26 26" fill="none" xmlns="http://www.w3.org/2000/svg">
<path fillRule="evenodd" clipRule="evenodd" d="M0.200012 0.999997C0.200012 0.558169 0.558184 0.199997 1.00001 0.199997H11.2C11.6418 0.199997 12 0.558169 12 0.999997V14.8C12 15.2418 11.6418 15.6 11.2 15.6H1.00001C0.558184 15.6 0.200012 15.2418 0.200012 14.8V0.999997ZM2.20001 2.2V13.6H10V2.2H2.20001ZM14 0.999997C14 0.558169 14.3582 0.199997 14.8 0.199997H25C25.4418 0.199997 25.8 0.558169 25.8 0.999997V7.6C25.8 8.04182 25.4418 8.4 25 8.4H14.8C14.3582 8.4 14 8.04182 14 7.6V0.999997ZM16 2.2V6.4H23.8V2.2H16ZM14 11.2C14 10.7582 14.3582 10.4 14.8 10.4H25C25.4418 10.4 25.8 10.7582 25.8 11.2V25C25.8 25.4418 25.4418 25.8 25 25.8H14.8C14.3582 25.8 14 25.4418 14 25V11.2ZM16 12.4V23.8H23.8V12.4H16ZM0.200012 18.4C0.200012 17.9582 0.558184 17.6 1.00001 17.6H11.2C11.6418 17.6 12 17.9582 12 18.4V25C12 25.4418 11.6418 25.8 11.2 25.8H1.00001C0.558184 25.8 0.200012 25.4418 0.200012 25V18.4ZM2.20001 19.6V23.8H10V19.6H2.20001Z" fill="#09958C"/>
</svg>
