<svg width="120" height="120" viewBox="0 0 120 120" fill="none" xmlns="http://www.w3.org/2000/svg">
<path d="M40.5781 56.8402C43.1211 58.5583 44.298 62.0301 43.426 65.2414C42.2512 69.3754 40.2039 73.1202 37.4624 76.1493C32.3453 81.9611 23.9624 81.5035 19.426 80.7077C19.3261 80.689 19.225 80.6801 19.1238 80.6809C18.62 80.6772 18.1353 80.9003 17.776 81.3015C17.3574 81.7299 17.1229 82.3434 17.1331 82.9832C17.1487 83.5761 17.3817 84.1347 17.776 84.5238C20.1843 87.204 22.9716 89.4063 26.0217 91.0388C28.7621 92.1569 30.7627 94.8602 31.261 98.1185C31.5239 99.5328 32.0932 100.85 32.9174 101.952L35.9474 105.398L78.376 57.2101C86.7674 47.6748 91.876 38.1152 90.4981 36.56C87.2024 32.8146 81.0503 36.8886 80.9903 36.93C80.4953 37.2464 69.8474 44.0754 63.7424 45.8033C56.5461 47.6753 49.0559 47.5216 41.9238 45.3555C40.9296 45.1121 39.9953 44.8882 39.0953 44.7057C38.4746 44.5756 37.8351 44.7666 37.351 45.2265C36.8593 45.6904 36.5756 46.3794 36.5774 47.1053V48.8089C36.5842 52.0959 38.1009 55.1406 40.5781 56.8402Z" fill="url(#paint0_linear_67_1881)"/>
<path d="M109.004 110.265H115.876L107.842 86.4075L102.498 90.9099L109.004 110.265Z" fill="url(#paint1_linear_67_1881)"/>
<path d="M75.4449 97.5879C75.5299 98.322 75.9066 98.9714 76.467 99.3499L80.1099 101.84C80.8536 102.346 81.7924 102.293 82.4885 101.706L119.142 70.8243C119.682 70.3647 119.999 69.6433 119.999 68.8773C119.999 68.1113 119.682 67.39 119.142 66.9303L109.634 58.8309C108.766 58.0915 107.549 58.2054 106.799 59.0962L76.0213 95.5801C75.5702 96.1148 75.358 96.8538 75.4449 97.5879Z" fill="url(#paint2_linear_67_1881)"/>
<path d="M38.9785 108.839C39.7824 109.753 40.8732 110.266 42.0107 110.266C43.1481 110.266 44.2389 109.753 45.0428 108.839L85.9521 62.3743C86.1878 62.1309 93.9192 54.8298 94.2749 46.4821C94.3379 45.0618 94.1672 43.6405 93.7714 42.2913C91.2192 48.9304 84.9364 56.6502 81.4049 60.6537L38.9785 108.839Z" fill="url(#paint3_linear_67_1881)"/>
<path d="M16.3977 76.5823C17.5328 75.9238 18.8198 75.6814 20.0813 75.8887C23.0813 76.4144 30.5127 77.1543 34.4384 72.7006C36.6854 70.2319 38.3664 67.1764 39.3349 63.8005C39.6202 62.7331 39.2253 61.5826 38.3792 61.0163C34.6146 58.4339 32.3087 53.8085 32.2956 48.8136V48.4486L26.6535 40.208L4.05273 65.3945C8.53988 69.4662 14.0342 74.4504 16.3977 76.5823Z" fill="#FFD3D5"/>
<path d="M117.857 115.133H2.14286C0.95939 115.133 0 116.222 0 117.566C0 118.91 0.95939 120 2.14286 120H117.857C119.041 120 120 118.91 120 117.566C120 116.222 119.041 115.133 117.857 115.133Z" fill="url(#paint4_linear_67_1881)"/>
<path d="M26.0079 33.1163C26.0086 32.4955 25.7902 31.9002 25.4014 31.4638C25.3479 31.4005 25.2964 31.3348 25.245 31.2642L3.81429 0.910884C3.24533 0.105454 2.29079 -0.204521 1.43294 0.137575C0.57509 0.479671 0.000708386 1.39936 0 2.43196V63.0924L25.4164 34.759C25.7981 34.3226 26.011 33.7314 26.0079 33.1163Z" fill="url(#paint5_linear_67_1881)"/>
<defs>
<linearGradient id="paint0_linear_67_1881" x1="53.9272" y1="34.9778" x2="53.9272" y2="105.398" gradientUnits="userSpaceOnUse">
<stop stop-color="#0DC5B9"/>
<stop offset="1" stop-color="#0D6D67"/>
</linearGradient>
<linearGradient id="paint1_linear_67_1881" x1="109.187" y1="86.4075" x2="109.187" y2="110.265" gradientUnits="userSpaceOnUse">
<stop stop-color="#0DC5B9"/>
<stop offset="1" stop-color="#0D6D67"/>
</linearGradient>
<linearGradient id="paint2_linear_67_1881" x1="97.7125" y1="58.344" x2="97.7125" y2="102.185" gradientUnits="userSpaceOnUse">
<stop stop-color="#0DC5B9"/>
<stop offset="1" stop-color="#0D6D67"/>
</linearGradient>
<linearGradient id="paint3_linear_67_1881" x1="66.6331" y1="42.2913" x2="66.6331" y2="110.266" gradientUnits="userSpaceOnUse">
<stop stop-color="#0DC5B9"/>
<stop offset="1" stop-color="#0D6D67"/>
</linearGradient>
<linearGradient id="paint4_linear_67_1881" x1="60" y1="115.133" x2="60" y2="120" gradientUnits="userSpaceOnUse">
<stop stop-color="#0DC5B9"/>
<stop offset="1" stop-color="#0D6D67"/>
</linearGradient>
<linearGradient id="paint5_linear_67_1881" x1="13.0039" y1="0" x2="13.0039" y2="63.0924" gradientUnits="userSpaceOnUse">
<stop stop-color="#0DC5B9"/>
<stop offset="1" stop-color="#0D6D67"/>
</linearGradient>
</defs>
</svg>
