<svg width="120" height="120" viewBox="0 0 120 120" fill="none" xmlns="http://www.w3.org/2000/svg">
<g clipPath="url(#clip0_67_1876)">
<path d="M63.5285 112.941C61.3859 111.331 60 108.769 60 105.882C60 101.009 63.9504 97.0588 68.8235 97.0588C73.6966 97.0588 77.6471 101.009 77.6471 105.882C77.6471 108.769 76.2611 111.331 74.1185 112.941H118.234C119.202 112.941 120 113.739 120 114.723V116.087C120 117.086 117.714 116.739 116.739 116.739H1.76592C-0.842772 116.739 -1.10236e-05 116.739 -2.10333e-05 116.087L-6.62385e-06 114.723C-6.62385e-06 113.724 0.790624 112.941 1.76594 112.941H17.6462C15.5035 111.331 14.1176 108.769 14.1176 105.882C14.1176 101.009 18.0681 97.0588 22.9412 97.0588C27.8143 97.0588 31.7647 101.009 31.7647 105.882C31.7647 108.769 30.3788 111.331 28.2361 112.941H63.5285ZM68.8235 109.412C70.7728 109.412 72.3529 107.832 72.3529 105.882C72.3529 103.933 70.7728 102.353 68.8235 102.353C66.8743 102.353 65.2941 103.933 65.2941 105.882C65.2941 107.832 66.8743 109.412 68.8235 109.412ZM22.9412 109.412C24.8904 109.412 26.4706 107.832 26.4706 105.882C26.4706 103.933 24.8904 102.353 22.9412 102.353C20.9919 102.353 19.4118 103.933 19.4118 105.882C19.4118 107.832 20.9919 109.412 22.9412 109.412ZM22.9412 47.6471H31.7647C33.7139 47.6471 35.2941 49.2273 35.2941 51.1765V61.7647C35.2941 63.714 33.7139 65.2942 31.7647 65.2942H22.9412C20.9919 65.2942 19.4118 63.714 19.4118 61.7647V51.1765C19.4118 49.2273 20.9919 47.6471 22.9412 47.6471ZM42.3529 51.1765H54.7059C56.6551 51.1765 58.2353 52.7567 58.2353 54.7059V61.7647C58.2353 63.714 56.6551 65.2942 54.7059 65.2942H42.3529C40.4037 65.2942 38.8235 63.714 38.8235 61.7647V54.7059C38.8235 52.7567 40.4037 51.1765 42.3529 51.1765ZM7.05882 107.647C5.10958 107.647 3.52941 106.067 3.52941 104.118V90C3.52941 88.0508 5.10958 86.4706 7.05882 86.4706H13.7011L21.5491 70.7746C22.1469 69.5789 23.369 68.8236 24.7059 68.8236H52.9412C54.1809 68.8236 55.3298 69.474 55.9676 70.5371L65.6338 86.6474L83.2607 88.2499C85.0786 88.4151 86.4706 89.9393 86.4706 91.7647V104.118C86.4706 106.067 84.8904 107.647 82.9412 107.647H81.0514C81.1338 107.071 81.1765 106.482 81.1765 105.882C81.1765 99.0601 75.6459 93.5294 68.8235 93.5294C62.0012 93.5294 56.4706 99.0601 56.4706 105.882C56.4706 106.482 56.5132 107.071 56.5957 107.647H35.169C35.2514 107.071 35.2941 106.482 35.2941 105.882C35.2941 99.0601 29.7635 93.5294 22.9412 93.5294C16.1188 93.5294 10.5882 99.0601 10.5882 105.882C10.5882 106.482 10.6309 107.071 10.7133 107.647H7.05882ZM50.9428 75.8824H26.8871L21.593 86.4706H57.2958L50.9428 75.8824ZM67.0588 44.1177C65.1096 44.1177 63.5294 42.5375 63.5294 40.5883C63.5294 38.639 65.1096 37.0588 67.0588 37.0588C69.0081 37.0588 70.5882 38.639 70.5882 40.5883C70.5882 42.5375 69.0081 44.1177 67.0588 44.1177ZM75.8823 65.2942C73.9331 65.2942 72.3529 63.714 72.3529 61.7647C72.3529 59.8155 73.9331 58.2353 75.8823 58.2353C77.8316 58.2353 79.4118 59.8155 79.4118 61.7647C79.4118 63.714 77.8316 65.2942 75.8823 65.2942ZM95.2941 54.7059C93.3449 54.7059 91.7647 53.1257 91.7647 51.1765C91.7647 49.2273 93.3449 47.6471 95.2941 47.6471C97.2433 47.6471 98.8235 49.2273 98.8235 51.1765C98.8235 53.1257 97.2433 54.7059 95.2941 54.7059ZM109.412 65.2942C107.463 65.2942 105.882 63.714 105.882 61.7647C105.882 59.8155 107.463 58.2353 109.412 58.2353C111.361 58.2353 112.941 59.8155 112.941 61.7647C112.941 63.714 111.361 65.2942 109.412 65.2942ZM38.8235 8.82355C36.8743 8.82355 35.2941 7.24338 35.2941 5.29414C35.2941 3.3449 36.8743 1.76473 38.8235 1.76473C40.7728 1.76473 42.3529 3.3449 42.3529 5.29414C42.3529 7.24338 40.7728 8.82355 38.8235 8.82355ZM38.8235 35.2941C36.8743 35.2941 35.2941 33.714 35.2941 31.7647C35.2941 29.8155 36.8743 28.2353 38.8235 28.2353C40.7728 28.2353 42.3529 29.8155 42.3529 31.7647C42.3529 33.714 40.7728 35.2941 38.8235 35.2941ZM14.1176 19.4118C12.1684 19.4118 10.5882 17.8316 10.5882 15.8824C10.5882 13.9331 12.1684 12.353 14.1176 12.353C16.0669 12.353 17.6471 13.9331 17.6471 15.8824C17.6471 17.8316 16.0669 19.4118 14.1176 19.4118ZM15.8823 40.5883C13.9331 40.5883 12.3529 39.0081 12.3529 37.0588C12.3529 35.1096 13.9331 33.5294 15.8823 33.5294C17.8316 33.5294 19.4118 35.1096 19.4118 37.0588C19.4118 39.0081 17.8316 40.5883 15.8823 40.5883ZM56.4706 26.4706C54.5213 26.4706 52.9412 24.8904 52.9412 22.9412C52.9412 20.992 54.5213 19.4118 56.4706 19.4118C58.4198 19.4118 60 20.992 60 22.9412C60 24.8904 58.4198 26.4706 56.4706 26.4706ZM111.449 27.5212C107.873 32.879 101.86 36.1675 95.2941 36.1675C84.5733 36.1675 75.8823 27.4765 75.8823 16.7557C75.8823 10.1898 79.1708 4.1768 84.5286 0.60061C86.9278 -1.00078 90.1305 0.795987 90.0145 3.67818C90.0048 3.91899 90 4.1605 90 4.40274C90 14.1489 97.9009 22.0498 107.647 22.0498C107.889 22.0498 108.131 22.045 108.372 22.0353C111.254 21.9193 113.051 25.122 111.449 27.5212Z" fill="url(#paint0_linear_67_1876)"/>
</g>
<defs>
<linearGradient id="paint0_linear_67_1876" x1="59.9351" y1="0" x2="59.9351" y2="116.797" gradientUnits="userSpaceOnUse">
<stop stop-color="#0DC5B9"/>
<stop offset="1" stop-color="#0D6D67"/>
</linearGradient>
<clipPath id="clip0_67_1876">
<rect width="120" height="120" fill="white"/>
</clipPath>
</defs>
</svg>
