<svg width="72" height="72" viewBox="0 0 72 72" fill="none" xmlns="http://www.w3.org/2000/svg">
<path d="M66.1242 23.3331C66.1242 20.7082 64.0289 18.5725 61.4533 18.5725C58.8778 18.5725 56.7826 20.7082 56.7826 23.3331C56.7826 25.9581 58.8778 28.0938 61.4533 28.0938C64.0289 28.0938 66.1242 25.9583 66.1242 23.3331ZM59.5951 23.3331C59.5951 22.2888 60.4288 21.4392 61.4533 21.4392C62.4781 21.4392 63.3117 22.2888 63.3117 23.3331C63.3117 24.3775 62.4781 25.2271 61.4533 25.2271C60.4288 25.2273 59.5951 24.3775 59.5951 23.3331Z" fill="url(#paint0_linear_67_1718)"/>
<path d="M67.3964 33.6985C69.85 30.4256 72 26.7242 72 23.3331C72 17.4057 67.2687 12.5833 61.4531 12.5833C55.6376 12.5833 50.9062 17.4057 50.9062 23.3331C50.9062 26.7242 53.0564 30.4256 55.51 33.6985C53.246 34.7118 51.6724 36.2862 51.1221 38.0869H38.8125C36.4863 38.0869 34.5938 40.0158 34.5938 42.3868V43.1035C34.5938 43.8951 35.2233 44.5368 36 44.5368C36.7767 44.5368 37.4062 43.8951 37.4062 43.1035V42.3868C37.4062 41.5965 38.037 40.9535 38.8125 40.9535H51.1177C52.0869 44.1763 56.2798 46.5334 61.4531 46.5334C67.3672 46.5334 72 43.4528 72 39.5202C72 37.1362 70.2447 34.9733 67.3964 33.6985ZM61.4531 15.4499C65.7179 15.4499 69.1875 18.9863 69.1875 23.3331C69.1875 27.4243 64.4548 33.0049 61.4531 36.4791C58.4518 33.0052 53.7188 27.4244 53.7188 23.3331C53.7188 18.9863 57.1884 15.4499 61.4531 15.4499ZM61.4531 43.6669C56.8952 43.6669 53.7188 41.4816 53.7188 39.5203C53.7188 38.1603 55.1537 36.8102 57.3583 36.0371C58.1324 36.9745 58.8918 37.8527 59.581 38.6496C59.8669 38.9803 60.1393 39.2952 60.3931 39.5922C60.6601 39.9043 61.0467 40.0836 61.4531 40.0836C61.8595 40.0836 62.2461 39.9045 62.5132 39.5922C62.767 39.2955 63.039 38.9808 63.3247 38.6503C64.014 37.8531 64.7736 36.9746 65.548 36.0371C67.7526 36.8102 69.1874 38.1603 69.1874 39.5203C69.1875 41.4816 66.0111 43.6669 61.4531 43.6669Z" fill="url(#paint1_linear_67_1718)"/>
<path d="M15.2178 43.3998C15.2178 40.7748 13.1225 38.6392 10.5471 38.6392C7.97169 38.6392 5.87637 40.7748 5.87637 43.3998C5.87637 46.0248 7.97169 48.1604 10.5471 48.1604C13.1225 48.1604 15.2178 46.0248 15.2178 43.3998ZM8.68873 43.3998C8.68873 42.3555 9.52236 41.5058 10.547 41.5058C11.5715 41.5058 12.4052 42.3555 12.4052 43.3998C12.4052 44.4441 11.5717 45.2938 10.547 45.2938C9.52222 45.2938 8.68873 44.4441 8.68873 43.3998Z" fill="url(#paint2_linear_67_1718)"/>
<path d="M13.0682 27.93C13.3429 28.2099 13.7027 28.3498 14.0626 28.3498C14.4225 28.3498 14.7825 28.2099 15.057 27.93C15.6061 27.3703 15.6061 26.4627 15.057 25.9028L13.9419 24.7664H41.8864L40.7714 25.9028C40.2222 26.4626 40.2222 27.3701 40.7714 27.93C41.046 28.2099 41.4059 28.3498 41.7657 28.3498C42.1256 28.3498 42.4855 28.2099 42.7601 27.93L46.2757 24.3467C46.8249 23.787 46.8249 22.8794 46.2757 22.3195L42.7601 18.7362C42.2108 18.1765 41.3207 18.1765 40.7712 18.7362C40.2221 19.296 40.2221 20.2035 40.7712 20.7634L41.8862 21.8999H13.9419L15.057 20.7634C15.6061 20.2037 15.6061 19.2961 15.057 18.7362C14.5078 18.1764 13.6174 18.1765 13.0681 18.7362L9.55248 22.3195C9.00334 22.8793 9.00334 23.7868 9.55248 24.3467L13.0682 27.93Z" fill="url(#paint3_linear_67_1718)"/>
<path d="M24.3984 19.0333C25.175 19.0333 25.8046 18.3916 25.8046 17.6V13.8937L26.9196 15.0302C27.4689 15.5899 28.3592 15.5899 28.9085 15.0302L30.0235 13.8937V17.6C30.0235 18.3916 30.6531 19.0333 31.4298 19.0333C32.2064 19.0333 32.836 18.3916 32.836 17.6V10.4334C32.836 9.85378 32.4933 9.33105 31.9679 9.10917C31.4427 8.88744 30.8377 9.00984 30.4354 9.41977L27.914 11.9897L25.3927 9.41991C24.9904 9.00998 24.3857 8.88715 23.8602 9.10931C23.3347 9.33119 22.9921 9.85378 22.9921 10.4336V17.6002C22.9921 18.3916 23.6217 19.0333 24.3984 19.0333Z" fill="url(#paint4_linear_67_1718)"/>
<path d="M36 54.5701C35.2233 54.5701 34.5938 55.2118 34.5938 56.0034V56.7201C34.5938 57.5104 33.9629 58.1534 33.1875 58.1534H20.8778C20.3275 56.3529 18.754 54.7784 16.49 53.765C18.9436 50.4923 21.0938 46.7909 21.0938 43.3998C21.0938 37.4723 16.3624 32.6499 10.5469 32.6499C4.73133 32.6499 0 37.4723 0 43.3998C0 46.7909 2.15016 50.4924 4.60378 53.7651C1.75542 55.0399 0 57.2028 0 59.5867C0 63.5195 4.63275 66.6001 10.5469 66.6001C15.7202 66.6001 19.9131 64.2428 20.8823 61.02H33.1876C35.5139 61.02 37.4064 59.0911 37.4064 56.7201V56.0034C37.4064 55.2118 36.7767 54.5701 36 54.5701ZM10.5469 35.5165C14.8116 35.5165 18.2813 39.053 18.2813 43.3998C18.2813 47.4909 13.5484 53.0717 10.5469 56.5458C7.54552 53.0718 2.8125 47.4911 2.8125 43.3998C2.8125 39.053 6.28214 35.5165 10.5469 35.5165ZM10.5469 63.7334C5.98894 63.7334 2.8125 61.5481 2.8125 59.5867C2.8125 58.2266 4.24744 56.8767 6.45202 56.1036C7.22616 57.041 7.98567 57.9192 8.67474 58.7161C8.96077 59.0468 9.23302 59.3617 9.48699 59.6587C9.75403 59.9708 10.1405 60.1501 10.547 60.1501C10.9536 60.1501 11.34 59.971 11.607 59.6587C11.861 59.3618 12.1331 59.0471 12.4189 58.7165C13.1081 57.9195 13.8676 57.0411 14.6419 56.1036C16.8463 56.8767 18.2813 58.2268 18.2813 59.5867C18.2813 61.5481 15.1048 63.7334 10.5469 63.7334Z" fill="url(#paint5_linear_67_1718)"/>
<path d="M36.0004 50.9868C36.7771 50.9868 37.4067 50.3451 37.4067 49.5534C37.4067 48.7618 36.7771 48.1201 36.0004 48.1201H35.9994C35.2228 48.1201 34.5938 48.7618 34.5938 49.5534C34.5938 50.3451 35.2239 50.9868 36.0004 50.9868Z" fill="url(#paint6_linear_67_1718)"/>
<defs>
<linearGradient id="paint0_linear_67_1718" x1="61.4534" y1="18.5725" x2="61.4534" y2="28.0938" gradientUnits="userSpaceOnUse">
<stop stop-color="#0DC5B9"/>
<stop offset="1" stop-color="#0D6D67"/>
</linearGradient>
<linearGradient id="paint1_linear_67_1718" x1="53.2969" y1="12.5833" x2="53.2969" y2="46.5334" gradientUnits="userSpaceOnUse">
<stop stop-color="#0DC5B9"/>
<stop offset="1" stop-color="#0D6D67"/>
</linearGradient>
<linearGradient id="paint2_linear_67_1718" x1="10.5471" y1="38.6392" x2="10.5471" y2="48.1604" gradientUnits="userSpaceOnUse">
<stop stop-color="#0DC5B9"/>
<stop offset="1" stop-color="#0D6D67"/>
</linearGradient>
<linearGradient id="paint3_linear_67_1718" x1="27.9141" y1="18.3164" x2="27.9141" y2="28.3498" gradientUnits="userSpaceOnUse">
<stop stop-color="#0DC5B9"/>
<stop offset="1" stop-color="#0D6D67"/>
</linearGradient>
<linearGradient id="paint4_linear_67_1718" x1="27.9141" y1="9" x2="27.9141" y2="19.0333" gradientUnits="userSpaceOnUse">
<stop stop-color="#0DC5B9"/>
<stop offset="1" stop-color="#0D6D67"/>
</linearGradient>
<linearGradient id="paint5_linear_67_1718" x1="18.7032" y1="32.6499" x2="18.7032" y2="66.6001" gradientUnits="userSpaceOnUse">
<stop stop-color="#0DC5B9"/>
<stop offset="1" stop-color="#0D6D67"/>
</linearGradient>
<linearGradient id="paint6_linear_67_1718" x1="36.0002" y1="48.1201" x2="36.0002" y2="50.9868" gradientUnits="userSpaceOnUse">
<stop stop-color="#0DC5B9"/>
<stop offset="1" stop-color="#0D6D67"/>
</linearGradient>
</defs>
</svg>
