<svg width="120" height="120" viewBox="0 0 120 120" fill="none" xmlns="http://www.w3.org/2000/svg">
<path d="M60.8757 43.9134C61.7027 46.4593 57.5514 46.4918 55.3459 47.5134C57.2432 52.3783 60.3568 56.6431 64.3297 59.9026C66.0162 58.0864 67.2973 54.162 69.4703 55.735C71.6432 57.308 68.2865 59.7891 67.1027 61.8972C71.3514 64.6377 76.3135 66.3242 81.6649 66.6323V61.9783C81.6649 59.708 85.1027 59.708 85.1027 61.9783V66.6323C90.4541 66.3242 95.4162 64.6377 99.6649 61.9134L96.9243 58.135C95.5784 56.2864 98.3676 54.2755 99.6973 56.108L102.454 59.8864C106.427 56.6269 109.541 52.362 111.438 47.4972C109.168 46.4431 105.065 46.4431 105.892 43.8972C106.719 41.3512 110.108 43.7674 112.492 44.2377C113.822 39.2107 113.886 34.2485 112.492 28.9296L108.065 30.3728C105.892 31.0701 104.838 27.8107 107.011 27.0972L111.438 25.6539C109.541 20.7891 106.427 16.5242 102.454 13.2647L99.7135 17.0431C98.3838 18.8756 95.5946 16.8647 96.9405 15.0161L99.6811 11.2377C95.4324 8.49718 90.4703 6.81069 85.1189 6.5188C84.827 8.99988 86.0757 12.8918 83.4 12.8918C80.7243 12.8918 81.973 8.93501 81.6811 6.5188C76.3297 6.85934 71.3514 8.52961 67.1027 11.2701C68.3189 13.4593 71.627 15.8593 69.4541 17.4323C67.2811 19.0053 65.9838 15.081 64.3135 13.281C60.3405 16.5404 57.227 20.8053 55.3297 25.6701C57.5838 26.708 61.6865 26.7242 60.8595 29.2701C60.0324 31.8161 56.6919 29.4161 54.2757 28.9296C52.9622 33.9242 52.8649 38.8864 54.2757 44.2377C56.7243 43.7674 60.0487 41.3674 60.8757 43.9134ZM66.5027 31.362C70.7189 17.7404 88.6378 14.6431 97.1027 25.4593C98.0757 25.0215 100.281 22.4756 101.546 24.4215C102.876 26.3837 99.6973 27.4053 98.9027 28.1512C99.7946 29.7566 100.703 31.6377 98.9351 32.2864C97.1676 32.9999 96.7297 30.9566 96.1946 29.9674L88.6216 35.0269C90.1297 40.2485 84.0486 44.1728 79.9459 40.8485L79.1027 41.4161C78.3081 44.7729 78.6162 45.6161 77.6595 46.2647C75.7622 47.4647 73.8973 49.3945 72.7297 47.6269C71.4162 45.681 74.5946 44.6269 75.3081 43.9458L75.7459 41.708L73.5081 41.2701C72.6487 41.6431 70.3946 44.1891 69.1297 42.2431C67.7676 40.2323 71.173 39.1783 72.2595 38.1891C73.2487 37.5566 73.9784 38.1729 77.3189 38.708L78.1459 38.1566C76.5892 32.9837 82.7189 29.0107 86.8216 32.335L94.3946 27.2756C89.6595 21.2431 79.7027 20.1566 73.427 26.1404C69.0162 30.308 70.2324 34.1837 67.573 33.3891C66.7297 33.1296 66.2432 32.2215 66.5027 31.362Z" fill="url(#paint0_linear_67_1860)"/>
<path d="M90.2108 84.1944C83.8378 84.0647 76.6865 73.0701 57.7784 72.908C35.4487 72.7296 22.0865 84.8269 22.0865 87.8431V92.6917C19.7676 92.8863 20.8703 96.0971 20.6108 98.3836C20.6108 102.324 23.8216 105.535 27.746 105.535H28.3622C30.1784 116.124 45.4541 116.108 47.2541 105.535H85.6216C87.4378 116.124 102.714 116.108 104.514 105.535C104.692 105.519 104.935 105.567 105.341 105.438C115.087 102.924 113.319 92.5134 113.351 92.3512C113.205 90.1134 105.065 84.5674 90.2108 84.1944ZM83.4 85.135C75.5027 86.1566 67.5081 86.6755 59.4162 86.7404V76.1836C71.027 76.6053 76.1351 81.0809 83.4 85.135ZM56.1892 76.135V86.7242C47.2378 86.6431 38.2054 85.9458 29.1243 84.6809C35.5946 79.4917 45.5027 76.3458 56.1892 76.135ZM37.8162 110.254C34.3135 110.254 31.4595 107.4 31.4595 103.897C31.4595 100.394 34.3135 97.5404 37.8162 97.5404C41.3189 97.5404 44.173 100.394 44.173 103.897C44.173 107.4 41.3189 110.254 37.8162 110.254ZM95.0757 110.254C91.573 110.254 88.7189 107.4 88.7189 103.897C88.7189 100.394 91.573 97.5404 95.0757 97.5404C98.5784 97.5404 101.432 100.394 101.432 103.897C101.432 107.4 98.5784 110.254 95.0757 110.254Z" fill="url(#paint1_linear_67_1860)"/>
<path d="M38.6919 66.1297C39.5838 66.1297 40.3135 65.4 40.3135 64.5081C40.3135 63.6162 39.5838 62.8864 38.6919 62.8864C26.8216 63.4216 22.8 61.6378 22.8 64.5081C22.8 67.3783 26.7243 65.5783 38.6919 66.1297Z" fill="#09958C"/>
<path d="M16.2649 74.0594C28.1351 73.5242 32.1568 75.308 32.1568 72.4377C32.1568 69.5675 28.2324 71.3675 16.2649 70.8161C14.1243 70.8161 14.1243 74.0594 16.2649 74.0594Z" fill="#09958C"/>
<path d="M22.3784 78.7458H8.10811C7.21622 78.7458 6.48649 79.4756 6.48649 80.3675C6.48649 81.2594 7.21622 81.9891 8.10811 81.9891H22.3784C24.5189 81.9891 24.5189 78.7458 22.3784 78.7458Z" fill="#09958C"/>
<defs>
<linearGradient id="paint0_linear_67_1860" x1="83.3837" y1="6.5188" x2="83.3837" y2="66.6323" gradientUnits="userSpaceOnUse">
<stop stop-color="#0DC5B9"/>
<stop offset="1" stop-color="#0D6D67"/>
</linearGradient>
<linearGradient id="paint1_linear_67_1860" x1="67.0133" y1="72.906" x2="67.0133" y2="113.471" gradientUnits="userSpaceOnUse">
<stop stop-color="#0DC5B9"/>
<stop offset="1" stop-color="#0D6D67"/>
</linearGradient>
</defs>
</svg>
