<svg width="120" height="120" viewBox="0 0 120 120" fill="none" xmlns="http://www.w3.org/2000/svg">
<path d="M74.0625 36.975L35.1562 75.8813L35.2687 64.575L37.7062 49.1437C38.2869 45.3683 40.2039 41.9267 43.1083 39.4456C46.0127 36.9645 49.7114 35.6087 53.5312 35.625H67.6125C69.8338 35.6138 72.0322 36.074 74.0625 36.975ZM35.1 82.0687L35.025 89.6438L41.775 114.375H55.9875L51.7875 93.4125C51.7312 93.1234 51.7658 92.8239 51.8867 92.5553C52.0076 92.2867 52.2088 92.0621 52.4625 91.9125C54.7377 90.5416 57.3437 89.8172 60 89.8172C62.6563 89.8172 65.2623 90.5416 67.5375 91.9125C67.7912 92.0621 67.9924 92.2867 68.1133 92.5553C68.2342 92.8239 68.2688 93.1234 68.2125 93.4125L64.0125 114.375H78.225L84.9188 89.8875L85.2188 82.425C80.1375 79.7437 70.9875 77.8125 61.125 77.4938C50.0625 77.1375 40.725 78.825 35.1 82.0687ZM83.4375 49.1437C82.8189 45.0912 80.6551 41.4357 77.4 38.9438L40.5 75.8438C47.2759 74.1524 54.26 73.4452 61.2375 73.7438C69.45 74.0063 78.9562 75.525 85.3687 78.3563L85.9125 64.7625L83.4375 49.1437ZM60 5.625C57.4041 5.625 54.8665 6.39477 52.7081 7.83696C50.5497 9.27916 48.8675 11.329 47.8741 13.7273C46.8807 16.1256 46.6208 18.7646 47.1272 21.3106C47.6336 23.8566 48.8837 26.1952 50.7192 28.0308C52.5548 29.8663 54.8934 31.1164 57.4394 31.6228C59.9854 32.1292 62.6244 31.8693 65.0227 30.8759C67.421 29.8825 69.4708 28.2003 70.913 26.0419C72.3552 23.8835 73.125 21.3459 73.125 18.75C73.1208 15.2703 71.7366 11.9344 69.2761 9.47388C66.8156 7.01338 63.4797 5.62922 60 5.625ZM22.9687 90.7312C23.3242 91.0798 23.8022 91.275 24.3 91.275C24.7978 91.275 25.2758 91.0798 25.6312 90.7312L31.9125 84.4312H31.9312C32.8799 83.5088 33.9452 82.7146 35.1 82.0687L35.1562 75.8813L22.9687 88.0688C22.6175 88.4228 22.4203 88.9013 22.4203 89.4C22.4203 89.8987 22.6175 90.3772 22.9687 90.7312ZM85.3687 78.3563L85.2188 82.425C86.2597 82.9542 87.2194 83.6298 88.0687 84.4312C88.4223 84.7819 88.9004 84.9783 89.3984 84.9772C89.8964 84.9762 90.3737 84.778 90.7258 84.4258C91.078 84.0737 91.2762 83.5964 91.2772 83.0984C91.2783 82.6004 91.0819 82.1223 90.7312 81.7688C89.164 80.3174 87.3473 79.1613 85.3687 78.3563ZM97.0312 16.6688C96.6772 16.3175 96.1987 16.1203 95.7 16.1203C95.2013 16.1203 94.7228 16.3175 94.3688 16.6688L74.0625 36.975C75.256 37.4831 76.378 38.145 77.4 38.9438L97.0312 19.3313C97.3825 18.9772 97.5797 18.4987 97.5797 18C97.5797 17.5013 97.3825 17.0228 97.0312 16.6688Z" fill="url(#paint0_linear_67_1870)"/>
<defs>
<linearGradient id="paint0_linear_67_1870" x1="60" y1="5.625" x2="60" y2="114.375" gradientUnits="userSpaceOnUse">
<stop stop-color="#0DC5B9"/>
<stop offset="1" stop-color="#0D6D67"/>
</linearGradient>
</defs>
</svg>
